<?xml version="1.0" standalone="no"?>
<!DOCTYPE svg PUBLIC "-//W3C//DTD SVG 20010904//EN"
 "http://www.w3.org/TR/2001/REC-SVG-20010904/DTD/svg10.dtd">
<svg version="1.0" xmlns="http://www.w3.org/2000/svg"
 width="500.000000pt" height="500.000000pt" viewBox="0 0 500.000000 500.000000"
 preserveAspectRatio="xMidYMid meet">
<metadata>
Created by potrace 1.11, written by Peter Selinger 2001-2013
</metadata>
<g transform="translate(0.000000,500.000000) scale(0.100000,-0.100000)"
fill="#000000" stroke="none">
<path d="M2468 4865 c-2 -2 -39 -6 -82 -10 -43 -4 -86 -8 -95 -10 -15 -3 -53
-7 -191 -20 -51 -5 -125 -16 -195 -30 -50 -10 -125 -35 -215 -70 -47 -19 -128
-48 -180 -65 -112 -37 -242 -100 -340 -165 -81 -54 -201 -168 -248 -237 -17
-25 -49 -56 -69 -69 -75 -46 -162 -114 -247 -194 -38 -36 -121 -139 -159 -197
-29 -45 -37 -68 -37 -103 0 -38 -3 -45 -19 -45 -19 0 -40 -50 -54 -130 -11
-56 -22 -88 -49 -140 -79 -152 -119 -352 -123 -615 -2 -99 -8 -214 -14 -255
-12 -88 -7 -331 8 -410 6 -30 18 -82 26 -115 8 -33 17 -80 20 -105 7 -63 12
-89 41 -220 38 -172 112 -306 244 -445 31 -33 96 -100 143 -150 47 -49 124
-137 170 -195 200 -248 353 -369 567 -444 62 -22 86 -37 130 -83 145 -147 339
-223 534 -209 50 4 117 10 148 14 32 5 65 4 74 -1 8 -5 37 -6 62 -3 26 3 119
6 207 7 88 1 187 5 220 9 33 5 83 11 110 14 28 3 73 10 100 15 28 5 91 11 139
12 245 6 499 108 671 269 22 21 89 68 149 104 148 90 226 147 308 224 83 79
127 137 173 232 20 39 50 90 66 113 17 23 41 65 55 92 13 28 28 57 33 65 34
54 224 452 254 530 56 147 60 185 62 605 3 512 -6 572 -140 940 -20 55 -41
116 -47 135 -5 19 -19 46 -30 60 -11 14 -43 65 -71 113 -57 98 -179 255 -281
362 -36 38 -78 92 -92 120 -149 289 -647 606 -1004 641 -47 4 -103 12 -280 40
-14 2 -52 8 -85 13 -52 8 -359 13 -367 6z"/>
</g>
</svg>
