<?xml version="1.0" encoding="iso-8859-1"?>
<!-- Generator: Adobe Illustrator 19.0.0, SVG Export Plug-In . SVG Version: 6.00 Build 0)  -->
<svg version="1.1" id="Capa_1" xmlns="http://www.w3.org/2000/svg" xmlns:xlink="http://www.w3.org/1999/xlink" x="0px" y="0px"
	 viewBox="0 0 511.999 511.999" width="20px" height="20px" fill="#363d43" style="enable-background:new 0 0 511.999 511.999;" xml:space="preserve">
<g>
	<g>
		<path d="M490.344,233.77l1.195-2.39c24.55-49.101,0.768-91.428,0.147-94.591l-0.537-0.93
			c-30.835-53.302-90.403-82.167-151.762-73.535c-7.954,1.119-15.819,2.923-23.457,5.354c-21.023-6.566-43.703-8.581-66.634-5.354
			c-13.267,1.867-26.121,5.57-38.315,11.015c-25.069-10.916-53.241-15.032-81.805-11.015
			c-52.999,7.456-96.118,43.669-116.511,91.759C-8.199,203.282-3.814,260.735,29.763,309.538v141.649c78.912,0,312.25,0,391.393,0
			v-68.084c4.573,0.338,9.172,0.517,13.797,0.517c16.182,0,30.494-10.315,35.611-25.667l16.384-49.153l25.051-27.496L490.344,233.77
			z M253.48,92.061c48.836-6.871,96.234,15.853,121.06,57.934c0.512,2.591,17.705,32.647,0.052,67.954l-7.76,15.519l21.041,42.08
			l-17.376,17.376l-18.511,55.531c-1.023,3.07-3.885,5.133-7.121,5.133c-26.92,0-53.088-6.948-76.332-20.171l8.09-24.27
			l27.669-27.669l-24.004-48.01l1.044-2.089c24.55-49.101,0.768-91.428,0.147-94.591c-1.164-1.642-12.172-23.444-36.783-43.127
			C247.595,93.016,250.523,92.478,253.48,92.061z M180.915,421.157H59.793V299.881l-2.873-3.949
			c-28.821-39.622-34.875-87.05-16.609-130.126c17.128-40.392,51.912-67.959,93.047-73.745
			c48.839-6.871,96.235,15.852,121.06,57.934c0.512,2.591,17.705,32.647,0.052,67.954l-7.76,15.519l21.041,42.08l-17.376,17.376
			l-18.511,55.53c-1.023,3.07-3.885,5.133-7.121,5.133c-30.609,0-60.25-8.975-85.719-25.954l-24.855-16.57l-16.658,24.987
			l24.854,16.571c18.031,12.02,37.813,20.682,58.549,25.743V421.157z M301.035,421.157h-90.09v-38.049
			c4.576,0.34,9.176,0.512,13.797,0.512c14.627,0,27.723-8.428,33.885-21.384c13.466,7.129,27.696,12.539,42.409,16.129V421.157z
			 M391.126,421.157h-60.06v-38.05c4.576,0.34,9.177,0.513,13.797,0.513c10.315,0,19.866-4.196,26.764-11.212
			c6.409,2.348,12.912,4.337,19.5,5.95V421.157z M460.468,293.272l-18.394,55.182c-1.023,3.07-3.885,5.133-7.121,5.133
			c-17.247,0-34.084-2.826-50.227-8.393l12.016-36.048l27.669-27.669l-24.004-48.01l1.044-2.089
			c24.55-49.101,0.768-91.428,0.147-94.591l-0.538-0.93c-10.377-17.939-24.019-33.095-39.879-45
			c42.349,0.119,81.624,22.143,103.448,59.137c0.513,2.591,17.705,32.647,0.052,67.954l-7.61,15.217l19.386,42.557L460.468,293.272z
			"/>
	</g>
</g>
<g>
</g>
<g>
</g>
<g>
</g>
<g>
</g>
<g>
</g>
<g>
</g>
<g>
</g>
<g>
</g>
<g>
</g>
<g>
</g>
<g>
</g>
<g>
</g>
<g>
</g>
<g>
</g>
<g>
</g>
</svg>
