<svg height="26px" fill="#fe4c8d" viewBox="0 0 128 128" width="26px" xmlns="http://www.w3.org/2000/svg">
    <g><path d="m56.875 4.557h-5.907a1.749 1.749 0 0 0 -1.75 1.75v19.926h-2.572v-19.926a1.75 1.75 0 0 0 -1.75-1.75h-5.908a1.749 1.749 0 0 0 -1.75 1.75v19.926h-2.572v-19.926a1.749 1.749 0 0 0 -1.75-1.75h-5.907a1.749 1.749 0 0 0 -1.75 1.75v25.679a14.469 14.469 0 0 0 7.264 12.529l4.707 2.693v28.311a8.283 8.283 0 0 0 -3.578 6.812v32.823a8.29 8.29 0 0 0 16.579 0v-32.823a8.28 8.28 0 0 0 -3.577-6.811v-28.312l4.706-2.693a14.468 14.468 0 0 0 7.265-12.529v-25.679a1.749 1.749 0 0 0 -1.75-1.75zm-10.144 110.6a4.79 4.79 0 0 1 -9.579 0v-32.826a4.79 4.79 0 0 1 9.579 0zm8.394-83.168a10.96 10.96 0 0 1 -5.5 9.491l-5.587 3.2a1.75 1.75 0 0 0 -.881 1.519v27.941a7.544 7.544 0 0 0 -2.424 0v-27.946a1.749 1.749 0 0 0 -.88-1.519l-5.588-3.2a10.963 10.963 0 0 1 -5.5-9.492v-23.926h2.407v19.926a1.75 1.75 0 0 0 1.75 1.75h6.072a1.75 1.75 0 0 0 1.75-1.75v-19.926h2.408v19.926a1.75 1.75 0 0 0 1.75 1.75h6.072a1.75 1.75 0 0 0 1.75-1.75v-19.926h2.407z"/><path d="m102.741 26.25c0-11.962-7.484-21.693-16.683-21.693s-16.683 9.731-16.683 21.693c0 9.655 4.961 18.147 11.971 20.818v28.452a8.28 8.28 0 0 0 -3.577 6.811v32.823a8.29 8.29 0 0 0 16.579 0v-32.823a8.283 8.283 0 0 0 -3.578-6.812v-28.451c7.01-2.668 11.971-11.163 11.971-20.818zm-11.893 88.9a4.79 4.79 0 0 1 -9.579 0v-32.819a4.79 4.79 0 0 1 9.579 0zm-4.79-41.112a8.338 8.338 0 0 0 -1.212.1v-28.338a1.752 1.752 0 0 0 -1.3-1.69c-6.186-1.662-10.675-9.173-10.675-17.858 0-10.032 5.914-18.193 13.183-18.193s13.187 8.159 13.187 18.191c0 8.685-4.49 16.2-10.676 17.858a1.751 1.751 0 0 0 -1.3 1.69v28.342a8.361 8.361 0 0 0 -1.207-.098z"/><path d="m91.268 24.854a1.75 1.75 0 0 0 1.747 1.663h.089a1.751 1.751 0 0 0 1.66-1.835c-.41-8.18-5.465-10.8-5.681-10.907a1.739 1.739 0 0 0 -2.325.767 1.76 1.76 0 0 0 .739 2.353c.142.074 3.469 1.923 3.771 7.959z"/></g>
</svg>